<?xml version="1.0" encoding="UTF-8"?>
<svg id="svg7384" width="16" height="16" version="1.1" xmlns="http://www.w3.org/2000/svg" xmlns:cc="http://creativecommons.org/ns#" xmlns:dc="http://purl.org/dc/elements/1.1/" xmlns:rdf="http://www.w3.org/1999/02/22-rdf-syntax-ns#">
 <metadata id="metadata90">
  <rdf:RDF>
   <cc:Work rdf:about="">
    <dc:format>image/svg+xml</dc:format>
    <dc:type rdf:resource="http://purl.org/dc/dcmitype/StillImage"/>
    <dc:title>Gnome Symbolic Icon Theme</dc:title>
   </cc:Work>
  </rdf:RDF>
 </metadata>
 <title id="title9167">Gnome Symbolic Icon Theme</title>
 <g id="layer11" transform="translate(-122 -490)">
  <g id="g860" transform="translate(-15 -3)">
   <path id="rect948" d="m139 495c-1.0907 0-2 0.9093-2 2v9c0 1.0907 0.9093 2 2 2h12c1.0907 0 2-0.9093 2-2v-9c0-1.0907-0.9093-2-2-2zm0 2h12v9h-12z" style="color-rendering:auto;color:#000000;dominant-baseline:auto;enable-background:new;fill:#3d3846;font-feature-settings:normal;font-variant-alternates:normal;font-variant-caps:normal;font-variant-ligatures:normal;font-variant-numeric:normal;font-variant-position:normal;image-rendering:auto;isolation:auto;mix-blend-mode:normal;shape-padding:0;shape-rendering:auto;solid-color:#000000;text-decoration-color:#000000;text-decoration-line:none;text-decoration-style:solid;text-indent:0;text-orientation:mixed;text-transform:none;white-space:normal"/>
   <rect id="rect951" x="142" y="503" width="2" height="1" style="enable-background:new;fill:#3d3846"/>
   <path id="path954" d="m139.95 498.79a0.60006 0.60006 0 0 0-0.25 1.0312l1.5625 1.5625-1.5625 1.5625a0.61872 0.61872 0 1 0 0.875 0.875l2-2a0.60006 0.60006 0 0 0 0-0.875l-2-2a0.60006 0.60006 0 0 0-0.625-0.15625z" style="color:#bebebe;fill:#3d3846;text-decoration-line:none;text-indent:0;text-transform:none"/>
   <rect id="rect956" x="145" y="496" width="1" height="11" style="enable-background:new;fill:#3d3846"/>
   <rect id="rect958" x="145" y="501" width="7" height="1" style="enable-background:new;fill:#3d3846"/>
  </g>
 </g>
</svg>
